<svg xmlns="http://www.w3.org/2000/svg" viewBox="0 0 1200 460" width="1200" height="460" role="img" aria-labelledby="title desc">
  <title id="title">AutoShip turns backlog into reviewed PRs — OpenCode + Hermes</title>
  <desc id="desc">AutoShip is a multi-runtime plugin that plans GitHub issues, dispatches OpenCode and Hermes workers, verifies results, and packages reviewed pull requests.</desc>
  <defs>
    <linearGradient id="bg" x1="0" y1="0" x2="1" y2="1">
      <stop offset="0" stop-color="#0b1020"/>
      <stop offset="1" stop-color="#1e293b"/>
    </linearGradient>
    <linearGradient id="gold" x1="0" y1="0" x2="1" y2="1">
      <stop offset="0" stop-color="#fbbf24"/>
      <stop offset="1" stop-color="#f97316"/>
    </linearGradient>
    <linearGradient id="box" x1="0" y1="0" x2="0" y2="1">
      <stop offset="0" stop-color="#fcd34d"/>
      <stop offset="1" stop-color="#d97706"/>
    </linearGradient>
  </defs>

  <rect width="1200" height="420" rx="28" fill="url(#bg)"/>

  <g opacity="0.08" fill="#93c5fd">
    <circle cx="720" cy="70" r="4"/><circle cx="800" cy="70" r="4"/><circle cx="880" cy="70" r="4"/><circle cx="960" cy="70" r="4"/><circle cx="1040" cy="70" r="4"/>
    <circle cx="720" cy="150" r="4"/><circle cx="800" cy="150" r="4"/><circle cx="880" cy="150" r="4"/><circle cx="960" cy="150" r="4"/><circle cx="1040" cy="150" r="4"/>
    <circle cx="720" cy="230" r="4"/><circle cx="800" cy="230" r="4"/><circle cx="880" cy="230" r="4"/><circle cx="960" cy="230" r="4"/><circle cx="1040" cy="230" r="4"/>
  </g>

  <!-- Big readable product copy -->
  <text x="70" y="112" font-family="Inter, ui-sans-serif, system-ui, -apple-system, Segoe UI, sans-serif" font-size="70" font-weight="900" fill="#f8fafc" letter-spacing="-2">AutoShip</text>
  <text x="74" y="166" font-family="Inter, ui-sans-serif, system-ui, -apple-system, Segoe UI, sans-serif" font-size="32" font-weight="800" fill="#cbd5e1">Turn backlog into reviewed PRs.</text>
  <text x="76" y="220" font-family="Inter, ui-sans-serif, system-ui, -apple-system, Segoe UI, sans-serif" font-size="24" fill="#fbbf24">OpenCode • Hermes • 15 + 3 workers ship • configured review verifies</text>

  <!-- Runtime Icons -->
  <g transform="translate(76, 240)">
    <!-- OpenCode Icon (geometric pixel grid) -->
    <g transform="translate(0, 0)">
      <rect x="0" y="0" width="12" height="12" rx="2" fill="#f97316"/>
      <rect x="16" y="0" width="12" height="12" rx="2" fill="#fbbf24"/>
      <rect x="0" y="16" width="12" height="12" rx="2" fill="#fbbf24"/>
      <rect x="16" y="16" width="12" height="12" rx="2" fill="#f97316"/>
      <text x="36" y="20" font-family="Inter, ui-sans-serif, system-ui" font-size="16" font-weight="700" fill="#cbd5e1">OpenCode</text>
    </g>
    
    <!-- Hermes Icon (winged helmet + staff) -->
    <g transform="translate(160, 0)">
      <!-- Winged helmet -->
      <path d="M6 2 Q14 0 20 6 Q22 12 16 16 Q10 18 4 14 Q0 10 6 2" fill="#fbbf24"/>
      <path d="M8 4 Q14 2 18 6" stroke="#f97316" stroke-width="2" fill="none"/>
      <!-- Wings -->
      <path d="M2 8 Q-2 4 2 2 Q6 4 4 8" fill="#f97316"/>
      <path d="M22 8 Q26 4 22 2 Q18 4 20 8" fill="#f97316"/>
      <!-- Staff/caduceus -->
      <rect x="12" y="14" width="3" height="14" rx="1" fill="#fcd34d"/>
      <circle cx="13.5" cy="12" r="3" fill="#f97316"/>
      <text x="36" y="20" font-family="Inter, ui-sans-serif, system-ui" font-size="16" font-weight="700" fill="#cbd5e1">Hermes</text>
    </g>
  </g>

  <g font-family="ui-monospace, SFMono-Regular, Menlo, monospace" font-size="20" font-weight="700">
    <rect x="76" y="310" width="188" height="46" rx="14" fill="#111827" stroke="#334155"/>
    <text x="98" y="340" fill="#dbeafe">ISSUES IN</text>
    <path d="M285 333h94" stroke="#fbbf24" stroke-width="8" stroke-linecap="round"/>
    <path d="M374 333l-22-16m22 16-22 16" stroke="#fbbf24" stroke-width="8" stroke-linecap="round" stroke-linejoin="round"/>
    <rect x="404" y="310" width="176" height="46" rx="14" fill="#14532d" stroke="#4ade80"/>
    <text x="429" y="340" fill="#dcfce7">PRS OUT</text>
  </g>

  <!-- Flying package -->
  <g transform="translate(610 92) rotate(-12)">
    <path d="M-145 65 C-90 35 -42 22 0 24" stroke="#f97316" stroke-width="9" stroke-linecap="round" opacity="0.75"/>
    <path d="M-130 92 C-78 68 -34 56 12 56" stroke="#fbbf24" stroke-width="6" stroke-linecap="round" opacity="0.65"/>
    <polygon points="0,0 118,0 148,28 30,28" fill="#fcd34d"/>
    <polygon points="30,28 148,28 148,112 30,112" fill="url(#box)"/>
    <polygon points="0,0 30,28 30,112 0,80" fill="#b45309"/>
    <rect x="82" y="28" width="14" height="84" fill="#92400e" opacity="0.45"/>
    <rect x="30" y="62" width="118" height="14" fill="#92400e" opacity="0.45"/>
    <text x="46" y="57" font-family="Inter, ui-sans-serif, system-ui" font-size="21" font-weight="900" fill="#7c2d12">AUTO</text>
    <text x="48" y="98" font-family="Inter, ui-sans-serif, system-ui" font-size="21" font-weight="900" fill="#7c2d12">SHIP</text>
  </g>

  <!-- Postman throwing package -->
  <g transform="translate(880 88)">
    <circle cx="130" cy="58" r="38" fill="#fbbf24"/>
    <path d="M94 44 Q130 10 168 44" fill="#2563eb"/>
    <rect x="102" y="28" width="58" height="14" rx="7" fill="#1d4ed8"/>
    <path d="M112 64 Q130 78 150 64" stroke="#7c2d12" stroke-width="5" fill="none" stroke-linecap="round"/>
    <rect x="82" y="104" width="105" height="120" rx="16" fill="#92400e"/>
    <rect x="96" y="128" width="46" height="22" rx="6" fill="#fbbf24"/>
    <text x="104" y="144" font-family="Inter, ui-sans-serif" font-size="12" font-weight="900" fill="#7c2d12">POST</text>
    <path d="M85 122 Q28 92 -42 76" stroke="#92400e" stroke-width="24" fill="none" stroke-linecap="round"/>
    <circle cx="-50" cy="74" r="15" fill="#fbbf24"/>
    <path d="M184 124 Q228 150 218 206" stroke="#92400e" stroke-width="22" fill="none" stroke-linecap="round"/>
    <circle cx="218" cy="210" r="14" fill="#fbbf24"/>
    <rect x="90" y="214" width="34" height="92" rx="13" fill="#1e293b" transform="rotate(8 107 214)"/>
    <rect x="148" y="214" width="34" height="92" rx="13" fill="#1e293b" transform="rotate(-8 165 214)"/>
    <ellipse cx="104" cy="311" rx="34" ry="13" fill="#0f172a"/>
    <ellipse cx="171" cy="311" rx="34" ry="13" fill="#0f172a"/>
  </g>
</svg>
